<svg xmlns="http://www.w3.org/2000/svg">
<!-- Velelek icon set. Authored for this site: 32-unit grid for animals, 24-unit grid for interface icons.
     One stroke weight (2), round caps and joins, currentColor. -->
<defs>
<symbol id="goveda" viewBox="0 0 32 32"><g fill="none" stroke="currentColor" stroke-width="2" stroke-linecap="round" stroke-linejoin="round">
  <path d="M10 10.5c3.9-2 8.1-2 12 0l-.9 10.2"/><path d="M10 10.5l.9 10.2"/>
  <path d="M10.3 10.2C8.6 7.4 6.4 6 3.8 6.6"/><path d="M21.7 10.2c1.7-2.8 3.9-4.2 6.5-3.6"/>
  <path d="M10.2 13.2c-2.6-.6-4.9.1-6.4 2 2 1.3 4.3 1.4 6.7.3"/><path d="M21.8 13.2c2.6-.6 4.9.1 6.4 2-2 1.3-4.3 1.4-6.7.3"/>
  <rect x="9.3" y="20.2" width="13.4" height="7.8" rx="3.9"/></g>
  <g fill="currentColor"><circle cx="13.4" cy="15.2" r="1.2"/><circle cx="18.6" cy="15.2" r="1.2"/><circle cx="13.9" cy="24.1" r="1"/><circle cx="18.1" cy="24.1" r="1"/></g></symbol>
<symbol id="ovce" viewBox="0 0 32 32"><g fill="none" stroke="currentColor" stroke-width="2" stroke-linecap="round" stroke-linejoin="round">
  <path d="M9.4 13.4a3.2 3.2 0 0 1 2.5-4.3 3.4 3.4 0 0 1 4.1-2.5 3.4 3.4 0 0 1 4.1 2.5 3.2 3.2 0 0 1 2.5 4.3"/>
  <path d="M11.2 12.6c-.6 5.2.3 9.8 2.3 12.6 1.4 1.9 3.6 1.9 5 0 2-2.8 2.9-7.4 2.3-12.6"/>
  <path d="M11 15.2c-2.4-.9-4.6-.6-6.5 1.1 1.8 1.5 4 1.8 6.8 1"/><path d="M21 15.2c2.4-.9 4.6-.6 6.5 1.1-1.8 1.5-4 1.8-6.8 1"/>
  <path d="M14.6 23.3c.9.8 1.9.8 2.8 0"/></g>
  <g fill="currentColor"><circle cx="13.9" cy="17.6" r="1.1"/><circle cx="18.1" cy="17.6" r="1.1"/></g></symbol>
<symbol id="svinje" viewBox="0 0 32 32"><g fill="none" stroke="currentColor" stroke-width="2" stroke-linecap="round" stroke-linejoin="round">
  <circle cx="16" cy="17.5" r="10"/><path d="M8.6 10.9 7.4 5l5.7 3"/><path d="M23.4 10.9 24.6 5l-5.7 3"/>
  <ellipse cx="16" cy="20.6" rx="4.6" ry="3.3"/></g>
  <g fill="currentColor"><circle cx="11.9" cy="14.8" r="1.2"/><circle cx="20.1" cy="14.8" r="1.2"/><circle cx="14.4" cy="20.6" r="1"/><circle cx="17.6" cy="20.6" r="1"/></g></symbol>
<symbol id="zivina" viewBox="0 0 32 32"><g fill="none" stroke="currentColor" stroke-width="2" stroke-linecap="round" stroke-linejoin="round">
  <path d="M9.4 11.4c.2-2.3 1.7-3.6 3.6-3.3 1.6.3 2.4 1.8 2.3 3.6l.3 3.8c3.3-.9 6.3-3 8.9-6.6 1.9 4.4 2.2 8.9.4 12.6-1.7 3.5-5 5.5-8.8 5.5-5 0-8.3-3.6-8-8.6.1-2.2.6-4.4 1.3-7z"/>
  <path d="M10.1 8.4c.2-1.9 1.2-2.8 2.4-1.8.7-1.6 2-1.8 2.6-.2"/><path d="M9.4 11.2 6.3 12.6l3.2 1"/><path d="M9.8 14.2c-.9 1.2-.6 2.4.7 2.7"/>
  <path d="M13.4 20.3c2.5 2 5.4 1.9 8-.5"/><path d="M14.3 26.8V29.5"/><path d="M18.6 26.4V29.5"/></g>
  <circle cx="12.2" cy="10.8" r="1.1" fill="currentColor"/></symbol>
<symbol id="golubovi" viewBox="0 0 32 32"><g fill="none" stroke="currentColor" stroke-width="2" stroke-linecap="round" stroke-linejoin="round">
  <path d="M19.3 13.5a3.6 3.6 0 1 1 4.6-2.2"/><path d="M24.9 10.1 28 11.4l-3.2.9"/>
  <path d="M19.3 13.5C13.2 13.1 7.8 16 4.6 21.8h7.1c3 2.6 7.9 2.3 10.4-1.3 1.6-2.3 1.9-4.7 1.1-6.9"/>
  <path d="M9.4 19.4c3.1-2.4 6.6-3.2 10.2-2.4"/><path d="M14.8 23.6v4.1"/><path d="M18.1 23.2v4.5"/></g>
  <circle cx="21.2" cy="9.8" r="1.1" fill="currentColor"/></symbol>
<symbol id="konji" viewBox="0 0 32 32"><g fill="none" stroke="currentColor" stroke-width="2" stroke-linecap="round" stroke-linejoin="round">
  <path d="M21.4 3.8 22.6 8.9C17.7 9.6 13.2 12.7 9.9 17.3l-3.2 4.3c-1.2 1.6-.7 4 1.6 4.2 1.4.1 2.5-.5 3.5-1.6l3.2-3.1c1.1 2.6 2 5.1 2.4 7.4"/>
  <path d="M22.6 8.9c2.9 5.5 4 12 3.6 19.3"/><path d="M22.6 8.9l2.1-.7-.6-4.6"/></g>
  <g fill="currentColor"><circle cx="18.4" cy="12.6" r="1.1"/><circle cx="8.6" cy="22.6" r="1"/></g></symbol>
<symbol id="psi" viewBox="0 0 32 32"><g fill="none" stroke="currentColor" stroke-width="2" stroke-linecap="round" stroke-linejoin="round">
  <path d="M10.2 8.8c3.7-1.8 7.9-1.8 11.6 0l1 9.2c.4 5.4-2.6 9.2-6.8 9.2s-7.2-3.8-6.8-9.2z"/>
  <path d="M10.2 8.8C6.3 8.7 4.2 12.6 4.9 18.7c1.6 1 3.3.5 4.6-1.4"/><path d="M21.8 8.8c3.9-.1 6 3.8 5.3 9.9-1.6 1-3.3.5-4.6-1.4"/>
  <path d="M16 23.2v1.3"/><path d="M13.4 25c1.7 1.3 3.5 1.3 5.2 0"/></g>
  <g fill="currentColor"><circle cx="13" cy="15.6" r="1.2"/><circle cx="19" cy="15.6" r="1.2"/><path d="M13.9 20.6h4.2L16 23.2z"/></g></symbol>
<symbol id="macke" viewBox="0 0 32 32"><g fill="none" stroke="currentColor" stroke-width="2" stroke-linecap="round" stroke-linejoin="round">
  <path d="M7.4 13.3V4.8l6 5h5.2l6-5v8.5c1.9 3.7 1.5 8.3-1.5 11.2-1.9 1.9-4.2 2.8-7.1 2.8s-5.2-.9-7.1-2.8c-3-2.9-3.4-7.5-1.5-11.2z"/>
  <path d="M3.8 18.9l6 .9"/><path d="M3.8 22.4l6-.6"/><path d="M28.2 18.9l-6 .9"/><path d="M28.2 22.4l-6-.6"/>
  <path d="M16 21.6c-.6 1.3-1.6 1.8-2.8 1.3"/><path d="M16 21.6c.6 1.3 1.6 1.8 2.8 1.3"/></g>
  <g fill="currentColor"><ellipse cx="12.4" cy="16.4" rx="1.2" ry="1.5"/><ellipse cx="19.6" cy="16.4" rx="1.2" ry="1.5"/><path d="M14.7 19.6h2.6L16 21.3z"/></g></symbol>
<symbol id="ljudi" viewBox="0 0 32 32"><g fill="none" stroke="currentColor" stroke-width="2" stroke-linecap="round" stroke-linejoin="round">
  <circle cx="16" cy="10.4" r="5"/><path d="M6.4 27.6c0-5.9 4.3-9.7 9.6-9.7s9.6 3.8 9.6 9.7"/></g></symbol>
<symbol id="insekti" viewBox="0 0 32 32"><g fill="none" stroke="currentColor" stroke-width="2" stroke-linecap="round" stroke-linejoin="round">
  <ellipse cx="16" cy="19.4" rx="3.6" ry="6.4"/><circle cx="16" cy="10.6" r="2.4"/>
  <path d="M13.3 15.4C9.1 10.1 4.6 12 5.6 15.8c.7 2.5 4.2 3.1 7.3 1.7"/><path d="M18.7 15.4c4.2-5.3 8.7-3.4 7.7.4-.7 2.5-4.2 3.1-7.3 1.7"/>
  <path d="M12.6 21.2 8.4 23.4"/><path d="M12.8 24.6l-3.2 3.1"/><path d="M19.4 21.2l4.2 2.2"/><path d="M19.2 24.6l3.2 3.1"/><path d="M14.8 8.4l-1.6-2.6"/><path d="M17.2 8.4l1.6-2.6"/></g></symbol>
<symbol id="rukavice" viewBox="0 0 32 32"><g fill="none" stroke="currentColor" stroke-width="2" stroke-linecap="round" stroke-linejoin="round">
  <path d="M11 28v-4.6L7.1 17.8c-.9-1.4.9-2.9 2.1-1.8l2.1 2V7.5a1.6 1.6 0 0 1 3.2 0V14"/><path d="M14.5 13V5.6a1.6 1.6 0 0 1 3.2 0V13"/><path d="M17.7 13.2V6.8a1.6 1.6 0 0 1 3.2 0v7"/><path d="M20.9 14.2V10a1.6 1.6 0 0 1 3.2 0v8.6c0 3-1.3 4.8-3.3 6.2V28"/></g></symbol>

<symbol id="i-telefon" viewBox="0 0 24 24"><path fill="none" stroke="currentColor" stroke-width="2" stroke-linecap="round" stroke-linejoin="round" d="M6.6 3.5H9l1.4 4.1-2 1.3a12 12 0 0 0 6.2 6.2l1.3-2 4.1 1.4v2.4a2 2 0 0 1-2.2 2A16.6 16.6 0 0 1 4.6 5.7a2 2 0 0 1 2-2.2z"/></symbol>
<symbol id="i-posta" viewBox="0 0 24 24"><g fill="none" stroke="currentColor" stroke-width="2" stroke-linecap="round" stroke-linejoin="round"><rect x="3" y="5" width="18" height="14" rx="2"/><path d="m3.8 6.4 8.2 6.3 8.2-6.3"/></g></symbol>
<symbol id="i-strelica" viewBox="0 0 24 24"><path fill="none" stroke="currentColor" stroke-width="2" stroke-linecap="round" stroke-linejoin="round" d="M4.5 12h14.5M13.5 6.5 19 12l-5.5 5.5"/></symbol>
<symbol id="i-nazad" viewBox="0 0 24 24"><path fill="none" stroke="currentColor" stroke-width="2" stroke-linecap="round" stroke-linejoin="round" d="M19.5 12H5M10.5 6.5 5 12l5.5 5.5"/></symbol>
<symbol id="i-pretraga" viewBox="0 0 24 24"><g fill="none" stroke="currentColor" stroke-width="2" stroke-linecap="round"><circle cx="10.5" cy="10.5" r="6.5"/><path d="m15.4 15.4 5.1 5.1"/></g></symbol>
<symbol id="i-meni" viewBox="0 0 24 24"><path fill="none" stroke="currentColor" stroke-width="2" stroke-linecap="round" d="M3.5 6.5h17M3.5 12h17M3.5 17.5h17"/></symbol>
<symbol id="i-zatvori" viewBox="0 0 24 24"><path fill="none" stroke="currentColor" stroke-width="2" stroke-linecap="round" d="m5.5 5.5 13 13M18.5 5.5l-13 13"/></symbol>
<symbol id="i-mapa" viewBox="0 0 24 24"><g fill="none" stroke="currentColor" stroke-width="2" stroke-linecap="round" stroke-linejoin="round"><path d="M12 21s-6.5-5.6-6.5-11a6.5 6.5 0 0 1 13 0c0 5.4-6.5 11-6.5 11z"/><circle cx="12" cy="10" r="2.4"/></g></symbol>
<symbol id="i-kvacica" viewBox="0 0 24 24"><path fill="none" stroke="currentColor" stroke-width="2.2" stroke-linecap="round" stroke-linejoin="round" d="m5 12.5 4.5 4.5L19 7.5"/></symbol>
<symbol id="i-paznja" viewBox="0 0 24 24"><g fill="none" stroke="currentColor" stroke-width="2" stroke-linecap="round" stroke-linejoin="round"><path d="M10.3 4.3 2.8 17.5A2 2 0 0 0 4.5 20.5h15a2 2 0 0 0 1.7-3L13.7 4.3a2 2 0 0 0-3.4 0z"/><path d="M12 9.5v4.5"/></g><circle cx="12" cy="17" r="1.1" fill="currentColor"/></symbol>
</defs>
</svg>
